<mxfile host="app.diagrams.net" modified="2024-06-02T21:32:23.699Z" agent="Mozilla/5.0 (Windows NT 10.0; Win64; x64) AppleWebKit/537.36 (KHTML, like Gecko) Chrome/125.0.0.0 Safari/537.36" etag="eRIzJCukgoC5MdnJcNUK" version="24.4.13" type="device">
  <diagram name="Page-1" id="CDQQ3RX8nWGKdJEwL-zN">
    <mxGraphModel dx="1434" dy="746" grid="1" gridSize="10" guides="1" tooltips="1" connect="1" arrows="1" fold="1" page="1" pageScale="1" pageWidth="827" pageHeight="1169" math="0" shadow="0">
      <root>
        <mxCell id="0" />
        <mxCell id="1" parent="0" />
        <mxCell id="_-e9lyQ5a3GyVUL2taQ1-5" style="edgeStyle=orthogonalEdgeStyle;rounded=0;orthogonalLoop=1;jettySize=auto;html=1;exitX=1;exitY=0.5;exitDx=0;exitDy=0;entryX=0;entryY=0.5;entryDx=0;entryDy=0;startArrow=classic;startFill=1;" edge="1" parent="1" source="_-e9lyQ5a3GyVUL2taQ1-1" target="_-e9lyQ5a3GyVUL2taQ1-2">
          <mxGeometry relative="1" as="geometry" />
        </mxCell>
        <mxCell id="_-e9lyQ5a3GyVUL2taQ1-1" value="Usuario" style="rounded=0;whiteSpace=wrap;html=1;" vertex="1" parent="1">
          <mxGeometry x="80" y="160" width="80" height="110" as="geometry" />
        </mxCell>
        <mxCell id="_-e9lyQ5a3GyVUL2taQ1-6" style="edgeStyle=orthogonalEdgeStyle;rounded=0;orthogonalLoop=1;jettySize=auto;html=1;exitX=1;exitY=0.5;exitDx=0;exitDy=0;entryX=0;entryY=0.5;entryDx=0;entryDy=0;startArrow=classic;startFill=1;" edge="1" parent="1" source="_-e9lyQ5a3GyVUL2taQ1-2" target="_-e9lyQ5a3GyVUL2taQ1-3">
          <mxGeometry relative="1" as="geometry" />
        </mxCell>
        <mxCell id="_-e9lyQ5a3GyVUL2taQ1-2" value="Frontend" style="rounded=0;whiteSpace=wrap;html=1;" vertex="1" parent="1">
          <mxGeometry x="220" y="160" width="80" height="110" as="geometry" />
        </mxCell>
        <mxCell id="_-e9lyQ5a3GyVUL2taQ1-7" style="edgeStyle=orthogonalEdgeStyle;rounded=0;orthogonalLoop=1;jettySize=auto;html=1;exitX=1;exitY=0.5;exitDx=0;exitDy=0;entryX=0;entryY=0.5;entryDx=0;entryDy=0;startArrow=classic;startFill=1;" edge="1" parent="1" source="_-e9lyQ5a3GyVUL2taQ1-3" target="_-e9lyQ5a3GyVUL2taQ1-4">
          <mxGeometry relative="1" as="geometry" />
        </mxCell>
        <mxCell id="_-e9lyQ5a3GyVUL2taQ1-3" value="API REST" style="rounded=0;whiteSpace=wrap;html=1;" vertex="1" parent="1">
          <mxGeometry x="360" y="160" width="80" height="110" as="geometry" />
        </mxCell>
        <mxCell id="_-e9lyQ5a3GyVUL2taQ1-4" value="Bases de datos" style="rounded=0;whiteSpace=wrap;html=1;" vertex="1" parent="1">
          <mxGeometry x="500" y="160" width="80" height="110" as="geometry" />
        </mxCell>
      </root>
    </mxGraphModel>
  </diagram>
</mxfile>
